<svg xmlns="http://www.w3.org/2000/svg" viewBox="0 0 40 40">
  <rect width="4" height="4" x="6" y="0" fill="#FF4500"/>
  <rect width="4" height="4" x="30" y="0" fill="#FF4500"/>
  <rect width="4" height="4" x="10" y="4" fill="#FF4500"/>
  <rect width="4" height="4" x="26" y="4" fill="#FF4500"/>
  <rect width="40" height="4" x="0" y="8" fill="#FF4500"/>
  <rect width="4" height="4" x="4" y="12" fill="#FF4500"/>
  <rect width="4" height="4" x="10" y="12" fill="#FF4500"/>
  <rect width="4" height="4" x="18" y="12" fill="#FF4500"/>
  <rect width="4" height="4" x="26" y="12" fill="#FF4500"/>
  <rect width="4" height="4" x="32" y="12" fill="#FF4500"/>
  <rect width="40" height="4" x="0" y="16" fill="#FF4500"/>
  <rect width="4" height="4" x="0" y="20" fill="#FF4500"/>
  <rect width="4" height="4" x="36" y="20" fill="#FF4500"/>
  <rect width="4" height="4" x="4" y="24" fill="#FF4500"/>
  <rect width="4" height="4" x="32" y="24" fill="#FF4500"/>
  <rect width="4" height="4" x="6" y="28" fill="#FF4500"/>
  <rect width="4" height="4" x="30" y="28" fill="#FF4500"/>
</svg>
