<svg xmlns="http://www.w3.org/2000/svg" viewBox="0 0 40 40">
  <rect width="4" height="4" x="14" y="0" fill="#00BFFF"/>
  <rect width="4" height="4" x="22" y="0" fill="#00BFFF"/>
  <rect width="4" height="4" x="10" y="4" fill="#00BFFF"/>
  <rect width="4" height="4" x="14" y="4" fill="#00BFFF"/>
  <rect width="4" height="4" x="18" y="4" fill="#00BFFF"/>
  <rect width="4" height="4" x="22" y="4" fill="#00BFFF"/>
  <rect width="4" height="4" x="26" y="4" fill="#00BFFF"/>
  <rect width="40" height="4" x="0" y="8" fill="#00BFFF"/>
  <rect width="4" height="4" x="4" y="12" fill="#00BFFF"/>
  <rect width="4" height="4" x="8" y="12" fill="#00BFFF"/>
  <rect width="4" height="4" x="14" y="12" fill="#00BFFF"/>
  <rect width="4" height="4" x="18" y="12" fill="#00BFFF"/>
  <rect width="4" height="4" x="22" y="12" fill="#00BFFF"/>
  <rect width="4" height="4" x="28" y="12" fill="#00BFFF"/>
  <rect width="4" height="4" x="32" y="12" fill="#00BFFF"/>
  <rect width="40" height="4" x="0" y="16" fill="#00BFFF"/>
  <rect width="4" height="4" x="0" y="20" fill="#00BFFF"/>
  <rect width="4" height="4" x="8" y="20" fill="#00BFFF"/>
  <rect width="4" height="4" x="28" y="20" fill="#00BFFF"/>
  <rect width="4" height="4" x="36" y="20" fill="#00BFFF"/>
  <rect width="4" height="4" x="8" y="24" fill="#00BFFF"/>
  <rect width="4" height="4" x="28" y="24" fill="#00BFFF"/>
  <rect width="4" height="4" x="4" y="28" fill="#00BFFF"/>
  <rect width="4" height="4" x="32" y="28" fill="#00BFFF"/>
</svg>
